<svg width="83" height="505" viewBox="0 0 83 505" fill="none" xmlns="http://www.w3.org/2000/svg">
<path fill-rule="evenodd" clip-rule="evenodd" d="M82 493.22L18.91 493.22L18.91 504.83L1.10004 504.83L1.10004 423.238L12.4872 423.238C10.0538 422.208 7.88515 420.722 6.03886 418.734C2.06112 414.45 0.290035 408.789 0.290035 402.242C0.290034 398.446 0.882832 394.981 2.27633 392.019C3.5531 389.182 5.41125 386.817 7.8799 385.055C8.82999 384.353 9.83164 383.732 10.8817 383.189L1.10004 383.189L1.10003 318.697L82 318.697L82 339.837L18.91 339.837L18.91 350.259L82 350.259L82 371.579L18.91 371.579L18.91 380.596C20.5019 380.3 22.1385 380.096 23.8179 379.981L27.411 379.736L30.6203 398.117L36.8985 390.992C39.6863 387.681 42.9641 384.871 46.7129 382.564C50.8304 379.928 55.685 378.712 61.08 378.712C65.1674 378.712 68.9525 379.632 72.3218 381.572C75.6699 383.439 78.3153 386.1 80.2223 389.474L80.2295 389.487L80.2367 389.499C82.123 392.895 82.99 396.768 82.99 400.982C82.99 405.859 82.0554 410.25 79.943 413.947L79.9279 413.973L79.9123 413.999C77.7289 417.689 74.563 420.446 70.5653 422.263C69.9331 422.551 69.2827 422.815 68.6146 423.058L82 423.058L82 461.838L18.91 461.838L18.91 471.9L82 471.9L82 493.22ZM14.91 475.9L14.91 464.47L5.10004 464.47L5.10004 500.83L14.91 500.83L14.91 489.22L78 489.22L78 475.9L14.91 475.9ZM64.82 424.162C62.3651 424.716 59.7214 425.034 56.9099 425.139L53.4953 425.267L49.9376 407.194L42.8553 415.22C40.3731 418.101 37.5774 420.465 34.4611 422.265L34.416 422.292L34.3701 422.317C30.8824 424.212 26.7952 425.052 22.29 425.052C20.9737 425.052 19.6954 424.974 18.46 424.814L18.46 440.518L31.43 440.518L31.43 426.928L48.7 426.928L48.7 440.518L64.82 440.518L64.82 424.162ZM68.82 444.518L44.7 444.518L44.7 430.928L35.43 430.928L35.43 444.518L14.46 444.518L14.46 427.238L5.10004 427.238L5.10004 457.838L78 457.838L78 427.058L68.82 427.058L68.82 444.518ZM39.84 412.592L47.94 403.412C49.98 401.012 52.02 399.092 54.06 397.652C56.1 396.212 58.71 395.492 61.89 395.492C63.87 395.492 65.52 395.942 66.84 396.842C68.1 397.742 68.73 399.272 68.73 401.432C68.73 403.352 68.16 404.912 67.02 406.112C65.82 407.252 64.14 408.122 61.98 408.722C60.9079 408.99 59.7544 409.206 58.5197 409.371C57.2668 409.538 55.9303 409.652 54.51 409.712L56.76 421.142C61.56 420.962 65.61 420.122 68.91 418.622C72.21 417.122 74.73 414.902 76.47 411.962C78.15 409.022 78.99 405.362 78.99 400.982C78.99 397.322 78.24 394.142 76.74 391.442C75.18 388.682 73.05 386.552 70.35 385.052C67.65 383.492 64.56 382.712 61.08 382.712C56.28 382.712 52.2 383.792 48.84 385.952C45.42 388.052 42.45 390.602 39.93 393.602L31.92 402.692C30.24 404.612 28.62 406.082 27.06 407.102C25.44 408.122 23.4 408.632 20.94 408.632C19.02 408.632 17.43 408.122 16.17 407.102C14.85 406.022 14.19 404.492 14.19 402.512C14.19 400.592 14.7 399.152 15.72 398.192C16.74 397.172 18.15 396.482 19.95 396.122C20.626 395.964 21.3358 395.828 22.0794 395.712C23.316 395.52 24.6462 395.387 26.07 395.312L24.09 383.972C21.45 384.152 18.96 384.572 16.62 385.232C14.22 385.892 12.09 386.912 10.23 388.292C8.37004 389.612 6.93004 391.412 5.91004 393.692C4.83004 395.972 4.29003 398.822 4.29003 402.242C4.29003 408.062 5.85004 412.652 8.97004 416.012C12.09 419.372 16.53 421.052 22.29 421.052C26.31 421.052 29.7 420.302 32.46 418.802C35.16 417.242 37.62 415.172 39.84 412.592ZM18.695 404C19.1173 404.339 19.7677 404.632 20.94 404.632C22.8374 404.632 24.0786 404.244 24.9021 403.734C26.0612 402.97 27.4016 401.782 28.9097 400.058L28.9189 400.047L29.732 399.125L26.2803 399.306C24.1832 399.417 22.3834 399.662 20.859 400.017L20.7969 400.032L20.7345 400.044C19.4987 400.291 18.8757 400.693 18.5485 401.02L18.5056 401.063L18.4615 401.105C18.4534 401.112 18.403 401.158 18.343 401.327C18.2732 401.524 18.19 401.895 18.19 402.512C18.19 403.497 18.4604 403.806 18.695 404ZM60.9586 404.854C62.5937 404.394 63.5905 403.819 64.1833 403.287C64.4782 402.948 64.73 402.432 64.73 401.432C64.73 400.723 64.6243 400.346 64.5588 400.188C64.5433 400.15 64.5304 400.125 64.5223 400.111C64.5198 400.107 64.5176 400.103 64.5158 400.1C64.0003 399.771 63.1983 399.492 61.89 399.492C59.3098 399.492 57.568 400.072 56.3668 400.92C54.7005 402.096 52.9458 403.719 51.1157 405.853L54.34 405.716C56.9338 405.605 59.1296 405.307 60.9586 404.854ZM14.91 367.579L78 367.579L78 354.259L14.91 354.259L14.91 342.829L5.10003 342.829L5.10003 379.189L14.91 379.189L14.91 367.579ZM82 315.662L1.10003 314.264L1.10003 293.299L36.0776 286.129L1.10003 278.647L1.10003 258.166L82 256.668L82 274.558L63.1648 274.959L82 278.807L82 293.339L62.8404 297.306L82 297.679L82 315.662ZM27.15 300.612L78 290.082L78 282.072L27.33 271.722L78 270.642L78 260.742L5.10003 262.092L5.10003 275.412L55.59 286.212L5.10003 296.562L5.10003 310.332L78 311.592L78 301.602L27.15 300.612ZM79.4737 215.592L79.4791 215.601C81.9646 219.484 82.99 224.479 82.99 230.177C82.99 235.783 81.9544 240.718 79.4983 244.633C77.077 248.492 73.5848 251.227 69.2071 252.832C65.061 254.353 60.3132 255.057 55.05 255.057L27.78 255.057C22.5274 255.057 17.8231 254.355 13.7725 252.821C9.44502 251.205 6.01379 248.454 3.66194 244.584C1.28907 240.681 0.290027 235.764 0.290027 230.177C0.290027 224.504 1.27657 219.535 3.67066 215.665C6.01696 211.812 9.43491 209.069 13.7433 207.454C17.8061 205.849 22.5217 205.117 27.78 205.117L55.14 205.117C60.3598 205.117 65.0897 205.856 69.2443 207.445C73.5509 209.055 77.0063 211.779 79.4683 215.584L79.4737 215.592ZM15.18 211.187C11.64 212.507 8.94003 214.697 7.08003 217.757C5.22003 220.757 4.29003 224.897 4.29003 230.177C4.29003 235.337 5.22003 239.447 7.08003 242.507C8.94003 245.567 11.64 247.757 15.18 249.077C18.66 250.397 22.86 251.057 27.78 251.057L55.05 251.057C59.97 251.057 64.23 250.397 67.83 249.077C71.43 247.757 74.19 245.567 76.11 242.507C78.03 239.447 78.99 235.337 78.99 230.177C78.99 224.897 78.03 220.757 76.11 217.757C74.13 214.697 71.37 212.507 67.83 211.187C64.23 209.807 60 209.117 55.14 209.117L27.78 209.117C22.86 209.117 18.66 209.807 15.18 211.187ZM64.7882 228.017L64.7504 227.974C64.4568 227.644 63.9515 227.284 62.9419 227.068C61.5753 226.775 60.03 226.617 58.29 226.617L24.72 226.617C22.9082 226.617 21.3768 226.777 20.0977 227.062C19.1796 227.266 18.7591 227.594 18.5229 227.878L18.4456 227.97L18.3671 228.054C18.3685 228.055 18.01 228.506 18.01 230.177C18.01 231.734 18.3716 232.213 18.4397 232.289L18.4821 232.337L18.5229 232.386C18.7591 232.669 19.1796 232.998 20.0978 233.202C21.3768 233.486 22.9082 233.647 24.72 233.647L58.29 233.647C60.0401 233.647 61.6074 233.516 63.0036 233.272C63.9721 233.054 64.4628 232.703 64.7504 232.379C64.8027 232.32 65.18 231.829 65.18 230.177C65.18 228.506 64.8216 228.055 64.8229 228.054L64.7882 228.017ZM63.78 237.197C62.1 237.497 60.27 237.647 58.29 237.647L24.72 237.647C22.68 237.647 20.85 237.467 19.23 237.107C17.61 236.747 16.35 236.027 15.45 234.947C14.49 233.867 14.01 232.277 14.01 230.177C14.01 227.957 14.49 226.337 15.45 225.317C16.35 224.237 17.61 223.517 19.23 223.157C20.85 222.797 22.68 222.617 24.72 222.617L58.29 222.617C60.27 222.617 62.1 222.797 63.78 223.157C65.46 223.517 66.78 224.237 67.74 225.317C68.7 226.337 69.18 227.957 69.18 230.177C69.18 232.337 68.7 233.957 67.74 235.037C66.78 236.117 65.46 236.837 63.78 237.197ZM82 203.264L1.10003 203.264L1.10003 187.351L27.1014 176.264L1.10003 176.264L1.10003 157.284L82 157.284L82 172.789L54.7821 183.924L82 183.924L82 203.264ZM34.44 187.924L78 170.104L78 161.284L5.10003 161.284L5.10003 172.264L46.68 172.264L5.10003 189.994L5.10003 199.264L78 199.264L78 187.924L34.44 187.924ZM82 153.861L1.10003 153.861L1.10002 132.721L75.5798 132.721L1.10002 117.825L1.10002 97.0466L74.2613 82.4143L1.10002 82.4143L1.10002 61.0943L64.82 61.0943L64.82 45.7045C62.365 46.2588 59.7214 46.5767 56.9099 46.6822L53.4953 46.8102L49.9376 28.7368L42.8721 36.744C42.8663 36.7507 42.8605 36.7574 42.8547 36.7641C40.3726 39.6446 37.5771 42.0081 34.4611 43.8085L34.4159 43.8346L34.3701 43.8595C30.8824 45.755 26.7952 46.595 22.29 46.595C15.7219 46.595 10.1004 44.6508 6.03885 40.2768C2.0611 35.9931 0.290018 30.3321 0.290018 23.785C0.290018 19.9891 0.882837 16.5237 2.27639 13.5622C3.55326 10.7244 5.41158 8.35934 7.88048 6.59756C10.1547 4.91702 12.7242 3.69946 15.546 2.92187C18.1703 2.18265 20.9309 1.7211 23.8179 1.52426L27.411 1.2793L30.6203 19.6598L36.8983 12.5352C39.6862 9.22442 42.964 6.414 46.7129 4.10727C50.8304 1.47128 55.685 0.255002 61.08 0.255002C65.1674 0.255002 68.9525 1.1752 72.3218 3.11459C75.6699 4.98153 78.3153 7.64285 80.2223 11.0168L80.2295 11.0296L80.2366 11.0424C82.123 14.4378 82.99 18.3112 82.99 22.525C82.99 27.4017 82.0554 31.7928 79.943 35.4896L79.9279 35.516L79.9123 35.5423C77.8655 39.0008 74.9554 41.6405 71.3059 43.4543L82 43.4543L82 101.449L65.17 104.329L65.17 110.29L82 113.26L82 153.861ZM61.17 113.646L61.17 100.956L78 98.0758L78 85.7458L5.10002 100.326L5.10002 114.546L78 129.126L78 116.616L61.17 113.646ZM70.35 6.595C67.65 5.035 64.56 4.255 61.08 4.255C56.28 4.255 52.2 5.33499 48.84 7.49499C45.42 9.595 42.45 12.145 39.93 15.145L31.92 24.235C30.24 26.155 28.62 27.625 27.06 28.645C25.44 29.665 23.4 30.175 20.94 30.175C19.02 30.175 17.43 29.665 16.17 28.645C14.85 27.565 14.19 26.035 14.19 24.055C14.19 22.135 14.7 20.695 15.72 19.735C16.74 18.715 18.15 18.025 19.95 17.665C20.626 17.5073 21.3358 17.3707 22.0794 17.2553C23.316 17.0634 24.6462 16.9299 26.07 16.855L24.09 5.51498C21.45 5.69501 18.96 6.11499 16.62 6.77499C14.22 7.435 12.09 8.45499 10.23 9.83499C8.37002 11.155 6.93002 12.955 5.91002 15.235C4.83002 17.515 4.29002 20.365 4.29002 23.785C4.29002 29.605 5.85002 34.195 8.97002 37.555C12.09 40.915 16.53 42.595 22.29 42.595C26.31 42.595 29.7 41.845 32.46 40.345C35.16 38.785 37.62 36.715 39.84 34.135L47.94 24.955C49.98 22.555 52.02 20.635 54.06 19.195C56.1 17.755 58.71 17.035 61.89 17.035C63.87 17.035 65.52 17.485 66.84 18.385C68.1 19.285 68.73 20.815 68.73 22.975C68.73 24.895 68.16 26.455 67.02 27.655C65.82 28.795 64.14 29.665 61.98 30.265C60.9079 30.533 59.7544 30.7494 58.5196 30.9139C57.2668 31.0809 55.9303 31.1946 54.51 31.255L56.76 42.685C61.56 42.505 65.61 41.665 68.91 40.165C72.21 38.665 74.73 36.445 76.47 33.505C78.15 30.565 78.99 26.905 78.99 22.525C78.99 18.865 78.24 15.685 76.74 12.985C75.18 10.225 73.05 8.095 70.35 6.595ZM60.9583 26.3973C62.5934 25.9373 63.5904 25.3622 64.1832 24.8305C64.4781 24.4912 64.73 23.9749 64.73 22.975C64.73 22.2656 64.6242 21.8894 64.5588 21.7305C64.5432 21.6927 64.5304 21.6681 64.5223 21.654C64.5198 21.6496 64.5176 21.646 64.5158 21.6431C64.0003 21.314 63.1983 21.035 61.89 21.035C59.3098 21.035 57.568 21.615 56.3668 22.4629C54.7005 23.639 52.9458 25.2624 51.1157 27.3958L54.34 27.2586C56.9336 27.1483 59.1293 26.8499 60.9583 26.3973ZM18.6949 25.5426C19.1172 25.8815 19.7677 26.175 20.94 26.175C22.8373 26.175 24.0785 25.7869 24.9021 25.2768C26.0611 24.5134 27.4016 23.3246 28.9097 21.601L28.9189 21.5905L29.732 20.6678L26.2803 20.8495C24.1832 20.9598 22.3834 21.2046 20.8589 21.5604L20.7969 21.5748L20.7345 21.5873C19.4987 21.8345 18.8756 22.2362 18.5484 22.5634L18.5056 22.6063L18.4615 22.6478C18.4562 22.6528 18.4051 22.6951 18.343 22.8704C18.2732 23.0675 18.19 23.4381 18.19 24.055C18.19 25.0399 18.4604 25.3488 18.6949 25.5426ZM68.82 65.0943L5.10002 65.0943L5.10002 78.4143L78 78.4143L78 47.4543L68.82 47.4543L68.82 65.0943ZM52.71 102.396L22.11 107.346L52.71 112.296L52.71 102.396ZM48.71 107.597L48.71 107.095L47.1588 107.346L48.71 107.597ZM78 335.837L78 322.697L5.10003 322.697L5.10003 335.837L78 335.837ZM78 149.861L78 136.721L5.10002 136.721L5.10002 149.861L78 149.861Z" fill="#FF812E"/>
</svg>
