<svg width="16" height="16" viewBox="0 0 16 16" fill="none" xmlns="http://www.w3.org/2000/svg">
<path fill-rule="evenodd" clip-rule="evenodd" d="M6.71997 1H3.04805C1.91694 1 1 1.91694 1 3.04805V6.71997C1 6.99156 1.10789 7.25202 1.29993 7.44407L8.25601 14.4001C9.05582 15.2 10.3526 15.2 11.1524 14.4001L14.4001 11.1524C15.2 10.3526 15.2 9.05582 14.4001 8.25601L7.44407 1.29993C7.25202 1.10789 6.99156 1 6.71997 1Z" fill="#76A713"/>
<path fill-rule="evenodd" clip-rule="evenodd" d="M6.71997 1.5C6.85895 1.5 6.99224 1.55521 7.09051 1.65348L14.0466 8.60956C14.6511 9.21411 14.6511 10.1943 14.0466 10.7988L10.7988 14.0466C10.1943 14.6511 9.21411 14.6511 8.60956 14.0466L1.65348 7.09051C1.55521 6.99224 1.5 6.85895 1.5 6.71997V3.04805C1.5 2.19308 2.19308 1.5 3.04805 1.5H6.71997ZM6.71997 0.5H3.04805C1.6408 0.5 0.500001 1.6408 0.500001 3.04805V6.71997C0.500001 7.12417 0.660565 7.51181 0.946376 7.79762L7.90245 14.7537C8.89753 15.7488 10.5109 15.7488 11.5059 14.7537L14.7537 11.5059C15.7488 10.5109 15.7488 8.89753 14.7537 7.90245L7.79762 0.946376C7.51181 0.660566 7.12417 0.5 6.71997 0.5Z" fill="#76A713"/>
<path d="M2.53594 3.56003C2.53594 2.99448 2.99441 2.53601 3.55996 2.53601C4.12551 2.53601 4.58398 2.99448 4.58398 3.56003C4.58398 4.12559 4.12551 4.58406 3.55996 4.58406C2.99441 4.58406 2.53594 4.12559 2.53594 3.56003Z" fill="white"/>
</svg>
