<svg width="75" height="498" viewBox="0 0 75 498" fill="none" xmlns="http://www.w3.org/2000/svg">
<path d="M74 486.22L74 490.22L78 490.22L78 486.22L74 486.22ZM10.91 486.22L10.91 482.22L6.91 482.22L6.91 486.22L10.91 486.22ZM10.91 497.83L10.91 501.83L14.91 501.83L14.91 497.83L10.91 497.83ZM1.09999 497.83L-2.90001 497.83L-2.90001 501.83L1.09999 501.83L1.09999 497.83ZM1.09999 461.47L1.09999 457.47L-2.90001 457.47L-2.90001 461.47L1.09999 461.47ZM10.91 461.47L14.91 461.47L14.91 457.47L10.91 457.47L10.91 461.47ZM10.91 472.9L6.90999 472.9L6.91 476.9L10.91 476.9L10.91 472.9ZM74 472.9L78 472.9L78 468.9L74 468.9L74 472.9ZM74 482.22L10.91 482.22L10.91 490.22L74 490.22L74 482.22ZM6.91 486.22L6.91 497.83L14.91 497.83L14.91 486.22L6.91 486.22ZM10.91 493.83L1.09999 493.83L1.09999 501.83L10.91 501.83L10.91 493.83ZM5.09999 497.83L5.09999 461.47L-2.90001 461.47L-2.90001 497.83L5.09999 497.83ZM1.09999 465.47L10.91 465.47L10.91 457.47L1.09999 457.47L1.09999 465.47ZM6.90999 461.47L6.90999 472.9L14.91 472.9L14.91 461.47L6.90999 461.47ZM10.91 476.9L74 476.9L74 468.9L10.91 468.9L10.91 476.9ZM70 472.9L70 486.22L78 486.22L78 472.9L70 472.9ZM74 454.838L74 458.838L78 458.838L78 454.838L74 454.838ZM1.09999 454.838L-2.90001 454.838L-2.90001 458.838L1.09999 458.838L1.09999 454.838ZM1.09999 424.238L1.09999 420.238L-2.90001 420.238L-2.90001 424.238L1.09999 424.238ZM10.46 424.238L14.46 424.238L14.46 420.238L10.46 420.238L10.46 424.238ZM10.46 441.518L6.46 441.518L6.46 445.518L10.46 445.518L10.46 441.518ZM31.43 441.518L31.43 445.518L35.43 445.518L35.43 441.518L31.43 441.518ZM31.43 427.928L31.43 423.928L27.43 423.928L27.43 427.928L31.43 427.928ZM40.7 427.928L44.7 427.928L44.7 423.928L40.7 423.928L40.7 427.928ZM40.7 441.518L36.7 441.518L36.7 445.518L40.7 445.518L40.7 441.518ZM64.82 441.518L64.82 445.518L68.82 445.518L68.82 441.518L64.82 441.518ZM64.82 424.058L64.82 420.058L60.82 420.058L60.82 424.058L64.82 424.058ZM74 424.058L78 424.058L78 420.058L74 420.058L74 424.058ZM74 450.838L1.09999 450.838L1.09999 458.838L74 458.838L74 450.838ZM5.09999 454.838L5.09999 424.238L-2.90001 424.238L-2.90001 454.838L5.09999 454.838ZM1.09999 428.238L10.46 428.238L10.46 420.238L1.09999 420.238L1.09999 428.238ZM6.46 424.238L6.46 441.518L14.46 441.518L14.46 424.238L6.46 424.238ZM10.46 445.518L31.43 445.518L31.43 437.518L10.46 437.518L10.46 445.518ZM35.43 441.518L35.43 427.928L27.43 427.928L27.43 441.518L35.43 441.518ZM31.43 431.928L40.7 431.928L40.7 423.928L31.43 423.928L31.43 431.928ZM36.7 427.928L36.7 441.518L44.7 441.518L44.7 427.928L36.7 427.928ZM40.7 445.518L64.82 445.518L64.82 437.518L40.7 437.518L40.7 445.518ZM68.82 441.518L68.82 424.058L60.82 424.058L60.82 441.518L68.82 441.518ZM64.82 428.058L74 428.058L74 420.058L64.82 420.058L64.82 428.058ZM70 424.058L70 454.838L78 454.838L78 424.058L70 424.058ZM72.47 408.962L75.9123 410.999L75.9278 410.973L75.943 410.947L72.47 408.962ZM64.91 415.622L63.2548 411.981L64.91 415.622ZM52.76 418.142L48.8353 418.915L49.4953 422.267L52.9099 422.139L52.76 418.142ZM50.51 406.712L50.3399 402.716L45.6855 402.914L46.5853 407.485L50.51 406.712ZM57.98 405.722L58.9501 409.603L59.0005 409.59L59.0506 409.576L57.98 405.722ZM63.02 403.112L65.775 406.012L65.8494 405.941L65.92 405.867L63.02 403.112ZM62.84 393.842L65.165 390.587L65.1294 390.562L65.0933 390.537L62.84 393.842ZM50.06 394.652L52.3667 397.92L50.06 394.652ZM43.94 400.412L46.9393 403.059L46.9638 403.031L46.9878 403.003L43.94 400.412ZM35.84 409.592L32.8406 406.946L32.8242 406.964L32.8079 406.983L35.84 409.592ZM28.46 415.802L30.37 419.317L30.4159 419.292L30.4611 419.265L28.46 415.802ZM4.96999 413.012L7.90117 410.29L7.90117 410.29L4.96999 413.012ZM1.90999 390.692L5.52494 392.404L5.54353 392.365L5.56126 392.325L1.90999 390.692ZM6.22999 385.292L8.54498 388.554L8.57944 388.53L8.61338 388.504L6.22999 385.292ZM12.62 382.232L13.6806 386.089L13.6932 386.085L13.7058 386.082L12.62 382.232ZM20.09 380.972L24.0304 380.284L23.4109 376.736L19.8179 376.981L20.09 380.972ZM22.07 392.312L22.2802 396.307L26.7865 396.069L26.0104 391.624L22.07 392.312ZM15.95 393.122L16.7345 397.044L16.7969 397.032L16.8589 397.017L15.95 393.122ZM11.72 395.192L14.4615 398.105L14.5056 398.063L14.5484 398.02L11.72 395.192ZM12.17 404.102L9.63704 407.198L9.64511 407.204L9.6532 407.211L12.17 404.102ZM23.06 404.102L25.1912 407.487L25.2203 407.469L25.249 407.45L23.06 404.102ZM27.92 399.692L24.9189 397.047L24.9097 397.058L27.92 399.692ZM35.93 390.602L38.9311 393.247L38.9624 393.211L38.9928 393.175L35.93 390.602ZM44.84 382.952L46.933 386.361L46.9683 386.339L47.003 386.317L44.84 382.952ZM66.35 382.052L64.3489 385.515L64.378 385.532L64.4074 385.549L66.35 382.052ZM72.74 388.442L76.2366 386.499L76.2295 386.487L76.2222 386.474L72.74 388.442ZM70.99 397.982C70.99 401.865 70.2446 404.794 68.997 406.977L75.943 410.947C78.0554 407.25 78.99 402.859 78.99 397.982L70.99 397.982ZM69.0277 406.925C67.7312 409.115 65.857 410.798 63.2548 411.981L66.5652 419.263C70.563 417.446 73.7288 414.689 75.9123 410.999L69.0277 406.925ZM63.2548 411.981C60.5554 413.208 57.05 413.978 52.6101 414.145L52.9099 422.139C58.07 421.946 62.6646 421.037 66.5652 419.263L63.2548 411.981ZM56.6847 417.369L54.4347 405.939L46.5853 407.485L48.8353 418.915L56.6847 417.369ZM50.68 410.708C53.702 410.58 56.4694 410.223 58.9501 409.603L57.0099 401.841C55.1706 402.301 52.958 402.604 50.3399 402.716L50.68 410.708ZM59.0506 409.576C61.6281 408.86 63.9618 407.735 65.775 406.012L60.265 400.212C59.6781 400.77 58.6519 401.384 56.9094 401.868L59.0506 409.576ZM65.92 405.867C67.8788 403.805 68.73 401.201 68.73 398.432L60.73 398.432C60.73 399.503 60.4412 400.019 60.12 400.357L65.92 405.867ZM68.73 398.432C68.73 395.529 67.8549 392.508 65.165 390.587L60.515 397.097C60.518 397.099 60.5171 397.099 60.5141 397.096C60.5111 397.093 60.5093 397.091 60.5095 397.091C60.5097 397.091 60.5142 397.097 60.5222 397.111C60.5304 397.125 60.5432 397.15 60.5588 397.188C60.6242 397.346 60.73 397.723 60.73 398.432L68.73 398.432ZM65.0933 390.537C62.9653 389.086 60.4802 388.492 57.89 388.492L57.89 396.492C59.2598 396.492 60.0747 396.798 60.5867 397.147L65.0933 390.537ZM57.89 388.492C54.1103 388.492 50.6321 389.352 47.7533 391.384L52.3667 397.92C53.5679 397.072 55.3097 396.492 57.89 396.492L57.89 388.492ZM47.7533 391.384C45.3783 393.061 43.096 395.229 40.8922 397.821L46.9878 403.003C48.864 400.795 50.6617 399.123 52.3667 397.92L47.7533 391.384ZM40.9406 397.766L32.8406 406.946L38.8393 412.239L46.9393 403.059L40.9406 397.766ZM32.8079 406.983C30.8544 409.253 28.7356 411.023 26.4589 412.339L30.4611 419.265C33.5844 417.461 36.3856 415.091 38.872 412.201L32.8079 406.983ZM26.5499 412.288C24.5177 413.392 21.8249 414.052 18.29 414.052L18.29 422.052C22.7951 422.052 26.8823 421.212 30.37 419.317L26.5499 412.288ZM18.29 414.052C13.3382 414.052 10.0796 412.636 7.90117 410.29L2.03882 415.734C6.10037 420.108 11.7218 422.052 18.29 422.052L18.29 414.052ZM7.90117 410.29C5.63891 407.854 4.28999 404.335 4.28999 399.242L-3.71001 399.242C-3.71001 405.789 -1.93893 411.45 2.03882 415.734L7.90117 410.29ZM4.28999 399.242C4.28999 396.215 4.77188 393.994 5.52494 392.404L-1.70496 388.98C-3.1119 391.95 -3.71001 395.429 -3.71001 399.242L4.28999 399.242ZM5.56126 392.325C6.31797 390.634 7.32253 389.422 8.54498 388.554L3.915 382.03C1.41746 383.802 -0.457986 386.19 -1.74128 389.059L5.56126 392.325ZM8.61338 388.504C10.0473 387.441 11.7217 386.628 13.6806 386.089L11.5594 378.375C8.71828 379.157 6.13272 380.383 3.8466 382.08L8.61338 388.504ZM13.7058 386.082C15.758 385.503 17.9735 385.126 20.3621 384.963L19.8179 376.981C16.9265 377.178 14.162 377.641 11.5342 378.382L13.7058 386.082ZM16.1496 381.66L18.1296 393L26.0104 391.624L24.0304 380.284L16.1496 381.66ZM21.8598 388.318C19.3968 388.447 17.1166 388.742 15.0411 389.227L16.8589 397.017C18.3834 396.662 20.1831 396.417 22.2802 396.307L21.8598 388.318ZM15.1655 389.2C12.8013 389.673 10.6044 390.651 8.89157 392.364L14.5484 398.02C14.8756 397.693 15.4987 397.292 16.7345 397.044L15.1655 389.2ZM8.97853 392.279C6.89246 394.243 6.18999 396.911 6.18999 399.512L14.19 399.512C14.19 398.895 14.2732 398.525 14.343 398.327C14.4051 398.152 14.4562 398.11 14.4615 398.105L8.97853 392.279ZM6.18999 399.512C6.18999 402.476 7.23339 405.231 9.63704 407.198L14.7029 401.006C14.4666 400.813 14.19 400.508 14.19 399.512L6.18999 399.512ZM9.6532 407.211C11.7511 408.909 14.2799 409.632 16.94 409.632L16.94 401.632C15.7601 401.632 15.1089 401.335 14.6868 400.993L9.6532 407.211ZM16.94 409.632C19.942 409.632 22.7746 409.009 25.1912 407.487L20.9287 400.717C20.1054 401.235 18.8579 401.632 16.94 401.632L16.94 409.632ZM25.249 407.45C27.2028 406.172 29.092 404.427 30.9303 402.326L24.9097 397.058C23.388 398.797 22.0372 399.992 20.871 400.754L25.249 407.45ZM30.9211 402.337L38.9311 393.247L32.9289 387.958L24.9189 397.048L30.9211 402.337ZM38.9928 393.175C41.2298 390.512 43.8701 388.241 46.933 386.361L42.7469 379.543C38.9699 381.863 35.6702 384.692 32.8672 388.029L38.9928 393.175ZM47.003 386.317C49.5978 384.649 52.8907 383.712 57.08 383.712L57.08 375.712C51.6693 375.712 46.8021 376.935 42.677 379.587L47.003 386.317ZM57.08 383.712C59.9408 383.712 62.3256 384.346 64.3489 385.515L68.3511 378.589C64.9744 376.638 61.1792 375.712 57.08 375.712L57.08 383.712ZM64.4074 385.549C66.4455 386.681 68.0503 388.274 69.2577 390.41L76.2222 386.474C74.3097 383.09 71.6545 380.423 68.2926 378.555L64.4074 385.549ZM69.2434 390.385C70.357 392.389 70.99 394.876 70.99 397.982L78.99 397.982C78.99 393.768 78.123 389.895 76.2366 386.499L69.2434 390.385ZM74 364.579L74 368.579L78 368.579L78 364.579L74 364.579ZM10.91 364.579L10.91 360.579L6.90999 360.579L6.90999 364.579L10.91 364.579ZM10.91 376.189L10.91 380.189L14.91 380.189L14.91 376.189L10.91 376.189ZM1.09999 376.189L-2.90001 376.189L-2.90001 380.189L1.09999 380.189L1.09999 376.189ZM1.09999 339.829L1.09999 335.829L-2.90001 335.829L-2.90001 339.829L1.09999 339.829ZM10.91 339.829L14.91 339.829L14.91 335.829L10.91 335.829L10.91 339.829ZM10.91 351.259L6.90999 351.259L6.90999 355.259L10.91 355.259L10.91 351.259ZM74 351.259L78 351.259L78 347.259L74 347.259L74 351.259ZM74 360.579L10.91 360.579L10.91 368.579L74 368.579L74 360.579ZM6.90999 364.579L6.90999 376.189L14.91 376.189L14.91 364.579L6.90999 364.579ZM10.91 372.189L1.09999 372.189L1.09999 380.189L10.91 380.189L10.91 372.189ZM5.09999 376.189L5.09999 339.829L-2.90001 339.829L-2.90001 376.189L5.09999 376.189ZM1.09999 343.829L10.91 343.829L10.91 335.829L1.09999 335.829L1.09999 343.829ZM6.90999 339.829L6.90999 351.259L14.91 351.259L14.91 339.829L6.90999 339.829ZM10.91 355.259L74 355.259L74 347.259L10.91 347.259L10.91 355.259ZM70 351.259L70 364.579L78 364.579L78 351.259L70 351.259ZM74 332.837L74 336.837L78 336.837L78 332.837L74 332.837ZM1.09999 332.837L-2.90001 332.837L-2.90001 336.837L1.09999 336.837L1.09999 332.837ZM1.09999 319.697L1.09999 315.697L-2.90001 315.697L-2.90001 319.697L1.09999 319.697ZM74 319.697L78 319.697L78 315.697L74 315.697L74 319.697ZM74 328.837L1.09999 328.837L1.09999 336.837L74 336.837L74 328.837ZM5.09999 332.837L5.09999 319.697L-2.90001 319.697L-2.90001 332.837L5.09999 332.837ZM1.09999 323.697L74 323.697L74 315.697L1.09999 315.697L1.09999 323.697ZM70 319.697L70 332.837L78 332.837L78 319.697L70 319.697ZM74 308.592L73.9309 312.592L78 312.662L78 308.592L74 308.592ZM1.09999 307.332L-2.90001 307.332L-2.90001 311.264L1.03086 311.332L1.09999 307.332ZM1.09999 293.562L0.296725 289.644L-2.90001 290.299L-2.90001 293.562L1.09999 293.562ZM51.59 283.212L52.3932 287.131L52.4267 279.301L51.59 283.212ZM1.09998 272.412L-2.90002 272.412L-2.90002 275.647L0.263296 276.324L1.09998 272.412ZM1.09998 259.092L1.02592 255.093L-2.90002 255.166L-2.90002 259.092L1.09998 259.092ZM74 257.742L78 257.742L78 253.668L73.9259 253.743L74 257.742ZM74 267.642L74.0852 271.641L78 271.558L78 267.642L74 267.642ZM23.33 268.722L23.2447 264.723L22.5295 272.641L23.33 268.722ZM74 279.072L78 279.072L78 275.807L74.8005 275.153L74 279.072ZM74 287.082L74.8111 290.999L78 290.339L78 287.082L74 287.082ZM23.15 297.612L22.3389 293.695L23.0721 301.612L23.15 297.612ZM74 298.602L78 298.602L78 294.679L74.0778 294.603L74 298.602ZM74.0691 304.593L1.16911 303.333L1.03086 311.332L73.9309 312.592L74.0691 304.593ZM5.09999 307.332L5.09999 293.562L-2.90001 293.562L-2.90001 307.332L5.09999 307.332ZM1.90325 297.481L52.3932 287.131L50.7867 279.294L0.296725 289.644L1.90325 297.481ZM52.4267 279.301L1.93667 268.501L0.263296 276.324L50.7533 287.124L52.4267 279.301ZM5.09998 272.412L5.09998 259.092L-2.90002 259.092L-2.90002 272.412L5.09998 272.412ZM1.17405 263.092L74.074 261.742L73.9259 253.743L1.02592 255.093L1.17405 263.092ZM70 257.742L70 267.642L78 267.642L78 257.742L70 257.742ZM73.9148 263.643L23.2447 264.723L23.4152 272.721L74.0852 271.641L73.9148 263.643ZM22.5295 272.641L73.1995 282.991L74.8005 275.153L24.1305 264.803L22.5295 272.641ZM70 279.072L70 287.082L78 287.082L78 279.072L70 279.072ZM73.1889 283.165L22.3389 293.695L23.9611 301.529L74.8111 290.999L73.1889 283.165ZM23.0721 301.612L73.9221 302.602L74.0778 294.603L23.2279 293.613L23.0721 301.612ZM70 298.602L70 308.592L78 308.592L78 298.602L70 298.602ZM72.11 239.507L68.7217 237.381L72.11 239.507ZM11.18 246.077L12.5986 242.337L12.5881 242.333L12.5775 242.329L11.18 246.077ZM3.07998 239.507L6.49807 237.429L3.07998 239.507ZM3.07998 214.757L6.47959 216.865L6.4889 216.85L6.49807 216.834L3.07998 214.757ZM11.18 208.187L12.5775 211.935L12.6162 211.92L12.6545 211.905L11.18 208.187ZM63.83 208.187L62.3982 211.922L62.4153 211.928L62.4325 211.935L63.83 208.187ZM72.11 214.757L75.4791 212.601L75.4737 212.592L75.4683 212.584L72.11 214.757ZM63.74 222.317L60.7503 224.974L60.7882 225.017L60.8272 225.058L63.74 222.317ZM59.78 220.157L60.6181 216.246L60.6181 216.246L59.78 220.157ZM15.23 220.157L14.3623 216.252L14.3623 216.252L15.23 220.157ZM11.45 222.317L14.3628 225.058L14.4456 224.97L14.5229 224.878L11.45 222.317ZM11.45 231.947L14.5229 229.386L14.482 229.337L14.4396 229.289L11.45 231.947ZM15.23 234.107L14.3623 238.012L14.3623 238.012L15.23 234.107ZM59.78 234.197L60.4832 238.135L60.5509 238.122L60.6181 238.108L59.78 234.197ZM63.74 232.037L60.7504 229.379L60.7503 229.379L63.74 232.037ZM70.99 227.177C70.99 231.891 70.1057 235.175 68.7217 237.381L75.4982 241.633C77.9543 237.718 78.99 232.783 78.99 227.177L70.99 227.177ZM68.7217 237.381C67.3031 239.642 65.2752 241.286 62.453 242.321L65.207 249.832C69.5848 248.227 73.0769 245.492 75.4982 241.633L68.7217 237.381ZM62.453 242.321C59.3991 243.441 55.6268 244.057 51.05 244.057L51.05 252.057C56.3132 252.057 61.0609 251.353 65.207 249.832L62.453 242.321ZM51.05 244.057L23.78 244.057L23.78 252.057L51.05 252.057L51.05 244.057ZM23.78 244.057C19.1974 244.057 15.5055 243.439 12.5986 242.337L9.76137 249.817C13.8144 251.354 18.5225 252.057 23.78 252.057L23.78 244.057ZM12.5775 242.329C9.82973 241.304 7.86442 239.677 6.49807 237.429L-0.338104 241.584C2.01555 245.457 5.45024 248.209 9.78246 249.825L12.5775 242.329ZM6.49807 237.429C5.15094 235.213 4.28998 231.909 4.28998 227.177L-3.71002 227.177C-3.71002 232.764 -2.71097 237.681 -0.338104 241.584L6.49807 237.429ZM4.28998 227.177C4.28998 222.297 5.16076 218.992 6.47959 216.865L-0.319627 212.649C-2.72079 216.522 -3.71002 221.496 -3.71002 227.177L4.28998 227.177ZM6.49807 216.834C7.86442 214.587 9.82973 212.959 12.5775 211.935L9.78246 204.439C5.45024 206.054 2.01555 208.807 -0.338105 212.679L6.49807 216.834ZM12.6545 211.905C15.5432 210.76 19.2145 210.117 23.78 210.117L23.78 202.117C18.5055 202.117 13.7768 202.854 9.70548 204.468L12.6545 211.905ZM23.78 210.117L51.14 210.117L51.14 202.117L23.78 202.117L23.78 210.117ZM51.14 210.117C55.6329 210.117 59.3571 210.756 62.3982 211.922L65.2617 204.452C61.1029 202.858 56.3671 202.117 51.14 202.117L51.14 210.117ZM62.4325 211.935C65.1982 212.966 67.257 214.62 68.7517 216.93L75.4683 212.584C73.003 208.774 69.5418 206.048 65.2275 204.439L62.4325 211.935ZM68.7409 216.913C70.0954 219.029 70.99 222.315 70.99 227.177L78.99 227.177C78.99 221.479 77.9646 216.484 75.4791 212.601L68.7409 216.913ZM69.18 227.177C69.18 224.509 68.6229 221.669 66.6528 219.575L60.8272 225.058C60.7771 225.005 61.18 225.405 61.18 227.177L69.18 227.177ZM66.7296 219.659C65.1033 217.83 62.9686 216.749 60.6181 216.246L58.9419 224.068C59.9514 224.284 60.4567 224.644 60.7503 224.974L66.7296 219.659ZM60.6181 216.246C58.6247 215.818 56.5101 215.617 54.29 215.617L54.29 223.617C56.0299 223.617 57.5753 223.775 58.9419 224.068L60.6181 216.246ZM54.29 215.617L20.72 215.617L20.72 223.617L54.29 223.617L54.29 215.617ZM20.72 215.617C18.4518 215.617 16.3232 215.816 14.3623 216.252L16.0977 224.062C17.3767 223.777 18.9081 223.617 20.72 223.617L20.72 215.617ZM14.3623 216.252C12.0404 216.768 9.94091 217.879 8.3771 219.756L14.5229 224.878C14.7591 224.594 15.1795 224.266 16.0977 224.062L14.3623 216.252ZM8.53718 219.575C6.56707 221.669 6.00999 224.509 6.00999 227.177L14.01 227.177C14.01 225.405 14.4129 225.005 14.3628 225.058L8.53718 219.575ZM6.00999 227.177C6.00999 229.82 6.60837 232.521 8.46035 234.604L14.4396 229.289C14.3716 229.213 14.01 228.734 14.01 227.177L6.00999 227.177ZM8.3771 234.508C9.94091 236.384 12.0404 237.496 14.3623 238.012L16.0977 230.202C15.1795 229.998 14.7591 229.669 14.5229 229.386L8.3771 234.508ZM14.3623 238.012C16.3232 238.447 18.4518 238.647 20.72 238.647L20.72 230.647C18.9081 230.647 17.3767 230.486 16.0977 230.202L14.3623 238.012ZM20.72 238.647L54.29 238.647L54.29 230.647L20.72 230.647L20.72 238.647ZM54.29 238.647C56.4693 238.647 58.5377 238.482 60.4832 238.135L59.0768 230.259C57.6623 230.512 56.0707 230.647 54.29 230.647L54.29 238.647ZM60.6181 238.108C62.9686 237.604 65.1033 236.524 66.7296 234.694L60.7503 229.379C60.4567 229.71 59.9514 230.069 58.9419 230.286L60.6181 238.108ZM66.7296 234.694C68.5973 232.593 69.18 229.845 69.18 227.177L61.18 227.177C61.18 228.829 60.8027 229.32 60.7504 229.379L66.7296 234.694ZM74 196.264L74 200.264L78 200.264L78 196.264L74 196.264ZM1.09998 196.264L-2.90002 196.264L-2.90002 200.264L1.09998 200.264L1.09998 196.264ZM1.09998 186.994L-0.468966 183.314L-2.90002 184.351L-2.90002 186.994L1.09998 186.994ZM42.68 169.264L44.2489 172.943L42.68 165.264L42.68 169.264ZM1.09998 169.264L-2.90002 169.264L-2.90002 173.264L1.09998 173.264L1.09998 169.264ZM1.09998 158.284L1.09998 154.284L-2.90002 154.284L-2.90002 158.284L1.09998 158.284ZM74 158.284L78 158.284L78 154.284L74 154.284L74 158.284ZM74 167.104L75.5145 170.806L78 169.789L78 167.104L74 167.104ZM30.44 184.924L28.9255 181.222L30.44 188.924L30.44 184.924ZM74 184.924L78 184.924L78 180.924L74 180.924L74 184.924ZM74 192.264L1.09998 192.264L1.09998 200.264L74 200.264L74 192.264ZM5.09998 196.264L5.09998 186.994L-2.90002 186.994L-2.90002 196.264L5.09998 196.264ZM2.66893 190.673L44.2489 172.943L41.111 165.584L-0.468966 183.314L2.66893 190.673ZM42.68 165.264L1.09998 165.264L1.09998 173.264L42.68 173.264L42.68 165.264ZM5.09998 169.264L5.09998 158.284L-2.90002 158.284L-2.90002 169.264L5.09998 169.264ZM1.09998 162.284L74 162.284L74 154.284L1.09998 154.284L1.09998 162.284ZM70 158.284L70 167.104L78 167.104L78 158.284L70 158.284ZM72.4855 163.402L28.9255 181.222L31.9545 188.626L75.5145 170.806L72.4855 163.402ZM30.44 188.924L74 188.924L74 180.924L30.44 180.924L30.44 188.924ZM70 184.924L70 196.264L78 196.264L78 184.924L70 184.924ZM74 146.861L74 150.861L78 150.861L78 146.861L74 146.861ZM1.09998 146.861L-2.90002 146.861L-2.90002 150.861L1.09998 150.861L1.09998 146.861ZM1.09998 133.721L1.09998 129.721L-2.90002 129.721L-2.90002 133.721L1.09998 133.721ZM74 133.721L78 133.721L78 129.721L74 129.721L74 133.721ZM74 142.861L1.09998 142.861L1.09998 150.861L74 150.861L74 142.861ZM5.09998 146.861L5.09998 133.721L-2.90002 133.721L-2.90002 146.861L5.09998 146.861ZM1.09998 137.721L74 137.721L74 129.721L1.09998 129.721L1.09998 137.721ZM70 133.721L70 146.861L78 146.861L78 133.721L70 133.721ZM74 126.126L73.2155 130.048L78 131.005L78 126.126L74 126.126ZM1.09998 111.546L-2.90002 111.546L-2.90002 114.825L0.315512 115.468L1.09998 111.546ZM1.09998 97.3258L0.315511 93.4035L-2.90002 94.0466L-2.90002 97.3258L1.09998 97.3258ZM74 82.7458L78 82.7458L78 77.8666L73.2155 78.8235L74 82.7458ZM74 95.0758L74.6747 99.0185L78 98.4494L78 95.0758L74 95.0758ZM57.17 97.9558L56.4953 94.0131L53.17 94.5821L53.17 97.9558L57.17 97.9558ZM57.17 110.646L53.17 110.646L53.17 114.002L56.4748 114.585L57.17 110.646ZM74 113.616L78 113.616L78 110.26L74.6951 109.677L74 113.616ZM48.71 109.296L48.0712 113.244L52.71 113.995L52.71 109.296L48.71 109.296ZM48.71 99.3958L52.71 99.3958L52.71 94.6967L48.0712 95.4471L48.71 99.3958ZM18.11 104.346L17.4712 100.397L17.4712 108.294L18.11 104.346ZM74.7844 122.203L1.88444 107.623L0.315512 115.468L73.2155 130.048L74.7844 122.203ZM5.09998 111.546L5.09998 97.3258L-2.90002 97.3258L-2.90002 111.546L5.09998 111.546ZM1.88444 101.248L74.7844 86.6681L73.2155 78.8235L0.315511 93.4035L1.88444 101.248ZM70 82.7458L70 95.0758L78 95.0758L78 82.7458L70 82.7458ZM73.3253 91.1331L56.4953 94.0131L57.8447 101.898L74.6747 99.0185L73.3253 91.1331ZM53.17 97.9558L53.17 110.646L61.17 110.646L61.17 97.9558L53.17 97.9558ZM56.4748 114.585L73.3048 117.555L74.6951 109.677L57.8651 106.707L56.4748 114.585ZM70 113.616L70 126.126L78 126.126L78 113.616L70 113.616ZM52.71 109.296L52.71 99.3958L44.71 99.3958L44.71 109.296L52.71 109.296ZM48.0712 95.4471L17.4712 100.397L18.7487 108.294L49.3487 103.344L48.0712 95.4471ZM17.4712 108.294L48.0712 113.244L49.3487 105.347L18.7487 100.397L17.4712 108.294ZM74 75.4143L74 79.4143L78 79.4143L78 75.4143L74 75.4143ZM1.09998 75.4143L-2.90002 75.4143L-2.90002 79.4143L1.09998 79.4143L1.09998 75.4143ZM1.09998 62.0943L1.09998 58.0943L-2.90002 58.0943L-2.90002 62.0943L1.09998 62.0943ZM64.82 62.0943L64.82 66.0943L68.82 66.0943L68.82 62.0943L64.82 62.0943ZM64.82 44.4543L64.82 40.4543L60.82 40.4543L60.82 44.4543L64.82 44.4543ZM74 44.4543L78 44.4543L78 40.4543L74 40.4543L74 44.4543ZM74 71.4143L1.09998 71.4143L1.09998 79.4143L74 79.4143L74 71.4143ZM5.09998 75.4143L5.09998 62.0943L-2.90002 62.0943L-2.90002 75.4143L5.09998 75.4143ZM1.09998 66.0943L64.82 66.0943L64.82 58.0943L1.09998 58.0943L1.09998 66.0943ZM68.82 62.0943L68.82 44.4543L60.82 44.4543L60.82 62.0943L68.82 62.0943ZM64.82 48.4543L74 48.4543L74 40.4543L64.82 40.4543L64.82 48.4543ZM70 44.4543L70 75.4143L78 75.4143L78 44.4543L70 44.4543ZM72.47 30.1534L75.9123 32.1907L75.9278 32.1645L75.9429 32.138L72.47 30.1534ZM64.91 36.8134L63.2548 33.172L64.91 36.8134ZM52.76 39.3334L48.8353 40.106L49.4953 43.4587L52.9099 43.3306L52.76 39.3334ZM50.51 27.9034L50.3399 23.907L45.6855 24.1051L46.5853 28.676L50.51 27.9034ZM57.98 26.9134L58.9501 30.794L59.0005 30.7814L59.0506 30.7675L57.98 26.9134ZM63.02 24.3034L65.775 27.2034L65.8493 27.1328L65.92 27.0584L63.02 24.3034ZM62.84 15.0334L65.1649 11.7785L65.1294 11.7531L65.0933 11.7285L62.84 15.0334ZM50.06 15.8434L52.3667 19.1113L50.06 15.8434ZM43.94 21.6034L46.9393 24.2499L46.9638 24.2222L46.9877 24.194L43.94 21.6034ZM35.84 30.7834L32.8406 28.137L32.8242 28.1556L32.8079 28.1745L35.84 30.7834ZM28.46 36.9934L30.37 40.5079L30.4159 40.483L30.4611 40.4569L28.46 36.9934ZM4.96998 34.2034L7.90115 31.4816L4.96998 34.2034ZM1.90997 11.8834L5.52492 13.5958L5.54351 13.5565L5.56125 13.5169L1.90997 11.8834ZM6.22998 6.48343L8.54497 9.74545L8.57943 9.72101L8.61337 9.69583L6.22998 6.48343ZM12.62 3.42343L13.6806 7.28024L13.6932 7.27679L13.7058 7.27322L12.62 3.42343ZM20.09 2.16342L24.0304 1.47543L23.4109 -2.07227L19.8179 -1.8273L20.09 2.16342ZM22.07 13.5034L22.2802 17.4979L26.7865 17.2607L26.0104 12.8154L22.07 13.5034ZM15.95 14.3134L16.7344 18.2357L16.7969 18.2233L16.8589 18.2088L15.95 14.3134ZM11.72 16.3834L14.4614 19.2962L14.5056 19.2547L14.5484 19.2119L11.72 16.3834ZM12.17 25.2934L9.63703 28.3893L9.64509 28.3959L9.65319 28.4024L12.17 25.2934ZM23.06 25.2934L25.1912 28.6784L25.2203 28.6601L25.249 28.6413L23.06 25.2934ZM27.92 20.8834L24.9189 18.2389L24.9097 18.2494L27.92 20.8834ZM35.93 11.7934L38.9311 14.438L38.9624 14.4024L38.9928 14.3662L35.93 11.7934ZM44.84 4.14343L46.933 7.55212L46.9682 7.53048L47.003 7.50814L44.84 4.14343ZM66.35 3.24343L64.3489 6.7069L64.378 6.72372L64.4074 6.74005L66.35 3.24343ZM72.74 9.63342L76.2366 7.69085L76.2295 7.678L76.2222 7.66519L72.74 9.63342ZM70.99 19.1734C70.99 23.0567 70.2446 25.9856 68.997 28.1689L75.9429 32.138C78.0554 28.4413 78.99 24.0501 78.99 19.1734L70.99 19.1734ZM69.0277 28.1161C67.7312 30.3068 65.857 31.9891 63.2548 33.172L66.5652 40.4549C70.563 38.6377 73.7288 35.8801 75.9123 32.1907L69.0277 28.1161ZM63.2548 33.172C60.5554 34.399 57.05 35.1697 52.6101 35.3362L52.9099 43.3306C58.0699 43.1371 62.6646 42.2279 66.5652 40.4549L63.2548 33.172ZM56.6847 38.5608L54.4347 27.1309L46.5853 28.676L48.8353 40.106L56.6847 38.5608ZM50.68 31.8998C53.7019 31.7712 56.4693 31.4142 58.9501 30.794L57.0098 23.0329C55.1706 23.4927 52.958 23.7957 50.3399 23.907L50.68 31.8998ZM59.0506 30.7675C61.628 30.0515 63.9618 28.9259 65.775 27.2034L60.265 21.4034C59.6781 21.961 58.6519 22.5753 56.9094 23.0594L59.0506 30.7675ZM65.92 27.0584C67.8788 24.9965 68.73 22.3928 68.73 19.6234L60.73 19.6234C60.73 20.6941 60.4411 21.2104 60.12 21.5484L65.92 27.0584ZM68.73 19.6234C68.73 16.7206 67.8549 13.6999 65.1649 11.7785L60.515 18.2884C60.518 18.2905 60.517 18.2901 60.514 18.2872C60.511 18.2843 60.5093 18.2822 60.5094 18.2823C60.5096 18.2826 60.5142 18.2884 60.5222 18.3024C60.5303 18.3165 60.5432 18.3411 60.5588 18.3789C60.6242 18.5378 60.73 18.914 60.73 19.6234L68.73 19.6234ZM65.0933 11.7285C62.9653 10.2776 60.4801 9.68344 57.89 9.68344L57.89 17.6834C59.2598 17.6834 60.0747 17.9893 60.5866 18.3383L65.0933 11.7285ZM57.89 9.68344C54.1102 9.68344 50.632 10.5435 47.7532 12.5756L52.3667 19.1113C53.5679 18.2634 55.3097 17.6834 57.89 17.6834L57.89 9.68344ZM47.7532 12.5756C45.3783 14.252 43.096 16.4202 40.8922 19.0128L46.9877 24.194C48.864 21.9867 50.6617 20.3148 52.3667 19.1113L47.7532 12.5756ZM40.9406 18.9569L32.8406 28.137L38.8393 33.4299L46.9393 24.2499L40.9406 18.9569ZM32.8079 28.1745C30.8543 30.4449 28.7356 32.2145 26.4589 33.53L30.4611 40.4569C33.5843 38.6523 36.3856 36.282 38.872 33.3924L32.8079 28.1745ZM26.5499 33.4789C24.5176 34.5834 21.8248 35.2434 18.29 35.2434L18.29 43.2434C22.7951 43.2434 26.8823 42.4034 30.37 40.5079L26.5499 33.4789ZM18.29 35.2434C13.3381 35.2434 10.0796 33.8276 7.90115 31.4816L2.0388 36.9252C6.10036 41.2992 11.7218 43.2434 18.29 43.2434L18.29 35.2434ZM7.90115 31.4816C5.6389 29.0453 4.28997 25.5263 4.28997 20.4334L-3.71003 20.4334C-3.71003 26.9805 -1.93895 32.6415 2.03881 36.9252L7.90115 31.4816ZM4.28997 20.4334C4.28997 17.4062 4.77186 15.1856 5.52492 13.5958L-1.70498 10.1711C-3.11191 13.1413 -3.71003 16.6206 -3.71003 20.4334L4.28997 20.4334ZM5.56125 13.5169C6.31795 11.8254 7.32251 10.613 8.54497 9.74545L3.91499 3.2214C1.41744 4.99386 -0.458003 7.38144 -1.7413 10.25L5.56125 13.5169ZM8.61337 9.69583C10.0472 8.63199 11.7217 7.81897 13.6806 7.28024L11.5594 -0.433382C8.71826 0.347899 6.1327 1.57489 3.84659 3.27106L8.61337 9.69583ZM13.7058 7.27322C15.758 6.69443 17.9735 6.31701 20.3621 6.15417L19.8179 -1.8273C16.9265 -1.63016 14.162 -1.16754 11.5341 -0.426363L13.7058 7.27322ZM16.1496 2.85144L18.1296 14.1914L26.0104 12.8154L24.0304 1.47543L16.1496 2.85144ZM21.8597 9.50897C19.3968 9.63858 17.1166 9.93377 15.0411 10.4181L16.8589 18.2088C18.3833 17.8531 20.1831 17.6083 22.2802 17.4979L21.8597 9.50897ZM15.1655 10.3911C12.8013 10.864 10.6044 11.8422 8.89155 13.555L14.5484 19.2119C14.8756 18.8847 15.4986 18.4829 16.7344 18.2357L15.1655 10.3911ZM8.97852 13.4706C6.89244 15.434 6.18997 18.1028 6.18997 20.7034L14.19 20.7034C14.19 20.0865 14.2732 19.7159 14.343 19.5188C14.4051 19.3436 14.4562 19.3012 14.4614 19.2962L8.97852 13.4706ZM6.18997 20.7034C6.18997 23.6673 7.23337 26.4226 9.63703 28.3893L14.7029 22.1976C14.4666 22.0042 14.19 21.6996 14.19 20.7034L6.18997 20.7034ZM9.65319 28.4024C11.7511 30.1007 14.2799 30.8234 16.94 30.8234L16.94 22.8234C15.7601 22.8234 15.1088 22.5261 14.6868 22.1844L9.65319 28.4024ZM16.94 30.8234C19.942 30.8234 22.7745 30.2 25.1912 28.6784L20.9287 21.9085C20.1054 22.4269 18.8579 22.8234 16.94 22.8234L16.94 30.8234ZM25.249 28.6413C27.2028 27.3638 29.092 25.6184 30.9303 23.5175L24.9097 18.2494C23.388 19.9885 22.0372 21.183 20.871 21.9456L25.249 28.6413ZM30.9211 23.528L38.9311 14.438L32.9289 9.14892L24.9189 18.2389L30.9211 23.528ZM38.9928 14.3662C41.2298 11.7031 43.87 9.43289 46.933 7.55212L42.7469 0.734738C38.9699 3.05398 35.6702 5.88376 32.8672 9.22067L38.9928 14.3662ZM47.003 7.50814C49.5978 5.84005 52.8906 4.90344 57.08 4.90344L57.08 -3.09656C51.6693 -3.09656 46.8021 -1.87317 42.6769 0.778714L47.003 7.50814ZM57.08 4.90344C59.9408 4.90344 62.3256 5.53787 64.3489 6.7069L68.3511 -0.220036C64.9744 -2.17099 61.1792 -3.09656 57.08 -3.09656L57.08 4.90344ZM64.4074 6.74005C66.4455 7.87234 68.0503 9.46539 69.2577 11.6016L76.2222 7.66519C74.3097 4.28149 71.6545 1.61453 68.2926 -0.253209L64.4074 6.74005ZM69.2433 11.576C70.357 13.5806 70.99 16.0673 70.99 19.1734L78.99 19.1734C78.99 14.9596 78.1229 11.0862 76.2366 7.69085L69.2433 11.576Z" fill="#FF812E"/>
</svg>
