<svg width="83" height="321" viewBox="0 0 83 321" fill="none" xmlns="http://www.w3.org/2000/svg">
<path fill-rule="evenodd" clip-rule="evenodd" d="M79.4737 281.126L79.4791 281.134C81.9646 285.018 82.99 290.012 82.99 295.71C82.99 301.316 81.9544 306.252 79.4983 310.166C77.077 314.025 73.5848 316.761 69.2071 318.366C65.061 319.886 60.3132 320.59 55.05 320.59L27.78 320.59C22.5271 320.59 17.8226 319.889 13.7719 318.354C9.44468 316.738 6.01368 313.987 3.66195 310.118C1.28908 306.214 0.290038 301.298 0.290038 295.71C0.290038 290.038 1.27663 285.069 3.67082 281.198C6.01719 277.345 9.43522 274.602 13.7437 272.987C17.8064 271.383 22.522 270.65 27.78 270.65L55.14 270.65C60.3598 270.65 65.0897 271.389 69.2444 272.979C73.5509 274.588 77.0063 277.312 79.4683 281.117L79.4737 281.126ZM15.18 276.72C11.64 278.04 8.94004 280.23 7.08004 283.29C5.22004 286.29 4.29004 290.43 4.29004 295.71C4.29004 300.87 5.22004 304.98 7.08004 308.04C8.94004 311.1 11.64 313.29 15.18 314.61C18.66 315.93 22.86 316.59 27.78 316.59L55.05 316.59C59.97 316.59 64.23 315.93 67.83 314.61C71.43 313.29 74.19 311.1 76.11 308.04C78.03 304.98 78.99 300.87 78.99 295.71C78.99 290.43 78.03 286.29 76.11 283.29C74.13 280.23 71.37 278.04 67.83 276.72C64.23 275.34 60 274.65 55.14 274.65L27.78 274.65C22.86 274.65 18.66 275.34 15.18 276.72ZM64.7882 293.55L64.7504 293.508C64.4568 293.177 63.9515 292.818 62.9419 292.602C61.5753 292.309 60.03 292.15 58.29 292.15L24.72 292.15C22.9082 292.15 21.3768 292.311 20.0978 292.595C19.1796 292.799 18.7591 293.128 18.5229 293.411L18.4456 293.504L18.3672 293.587C18.3685 293.588 18.01 294.039 18.01 295.71C18.01 297.267 18.3717 297.746 18.4397 297.823L18.4821 297.871L18.5229 297.92C18.7591 298.203 19.1796 298.532 20.0978 298.736C21.3768 299.02 22.9082 299.18 24.72 299.18L58.29 299.18C60.0402 299.18 61.6077 299.05 63.0039 298.806C63.9723 298.588 64.4629 298.236 64.7504 297.913C64.8027 297.854 65.18 297.362 65.18 295.71C65.18 294.039 64.8216 293.588 64.8229 293.587L64.7882 293.55ZM82 268.797L1.10004 268.797L1.10004 247.337C1.10004 242.138 1.72841 237.524 3.11898 233.612C4.52694 229.415 7.04939 226.059 10.7138 223.789C14.4014 221.445 19.0763 220.477 24.36 220.477C27.538 220.477 30.4875 220.769 33.1795 221.39C36.0176 222.045 38.5786 223.203 40.7735 224.926C42.1096 225.967 43.2272 227.222 44.147 228.648L82 217.927L82 239.618L52.2466 247.477L82 247.477L82 268.797ZM44.61 245.357L78 236.537L78 223.217L42.09 233.387C41.19 231.107 39.93 229.337 38.31 228.077C36.63 226.757 34.62 225.827 32.28 225.287C29.94 224.747 27.3 224.477 24.36 224.477C19.5 224.477 15.66 225.377 12.84 227.177C10.02 228.917 8.04004 231.497 6.90004 234.917C5.70004 238.277 5.10004 242.417 5.10004 247.337L5.10004 264.797L78 264.797L78 251.477L44.61 251.477L44.61 245.357ZM19.3552 242.187L19.295 242.229C19.0361 242.413 18.19 243.279 18.19 246.617L18.19 247.477L32.24 247.477L32.24 247.337C32.24 245.088 31.9194 243.727 31.5676 242.977C31.2283 242.312 30.7739 241.891 30.073 241.601C29.013 241.189 27.4297 240.897 25.17 240.897C21.8905 240.897 20.2022 241.537 19.4138 242.142L19.3552 242.187ZM31.56 237.887C33.18 238.547 34.38 239.657 35.16 241.217C35.88 242.717 36.24 244.757 36.24 247.337L36.24 251.477L14.19 251.477L14.19 246.617C14.19 242.837 15.12 240.287 16.98 238.967C18.78 237.587 21.51 236.897 25.17 236.897C27.75 236.897 29.88 237.227 31.56 237.887ZM68.5369 217.781L68.5004 217.792C64.2355 219.146 59.3696 219.78 53.97 219.78L29.49 219.78C23.9813 219.78 19.0525 219.149 14.7797 217.792C10.2261 216.347 6.55355 213.731 4.01659 209.891C1.38594 205.94 0.290034 200.866 0.290034 195.08C0.290033 189.709 1.18653 184.979 3.33707 181.215C5.46475 177.492 8.58939 174.791 12.5834 173.198C16.3204 171.626 20.6792 170.92 25.53 170.92L33.31 170.92L33.31 191.61L25.17 191.61C23.018 191.61 21.3041 191.777 19.9782 192.061L19.9109 192.075L19.8432 192.087C18.8203 192.27 18.5256 192.578 18.4478 192.673L18.3661 192.772L18.3072 192.835C18.2893 192.867 18.2458 192.957 18.1964 193.132C18.0993 193.475 18.01 194.041 18.01 194.9C18.01 196.484 18.358 196.995 18.4499 197.103C18.898 197.482 19.6114 197.852 20.7987 198.051C22.4447 198.26 24.2889 198.37 26.34 198.37L56.85 198.37C59.1622 198.37 61.0434 198.176 62.539 197.838C63.7331 197.568 64.3594 197.154 64.711 196.785C64.8702 196.573 65.18 195.979 65.18 194.54C65.18 193.014 64.8037 192.496 64.6562 192.341C64.2523 191.914 63.5395 191.449 62.2053 191.157L62.1474 191.145L62.0899 191.13C60.5724 190.751 58.6344 190.53 56.22 190.53L53.38 190.53L53.38 198.36L37.01 198.36L37.01 170.56L69.8211 170.56L1.10003 156.816L1.10003 136.037L74.2614 121.405L1.10003 121.405L1.10003 105.492L27.1014 94.4049L1.10003 94.4049L1.10003 75.4249L82 75.4249L82 90.9303L54.7821 102.065L82 102.065L82 140.44L65.17 143.32L65.17 149.28L82 152.25L82 186.597L80.4449 186.811C82.2627 189.529 82.99 192.853 82.99 196.43C82.99 201.76 81.8602 206.487 79.1709 210.204C76.5828 213.782 72.9747 216.278 68.5733 217.768L68.5369 217.781ZM75.8162 187.448C74.4211 185.995 72.7491 184.879 70.8 184.1L78 183.11L78 174.56L41.01 174.56L41.01 194.36L49.38 194.36L49.38 186.53L56.22 186.53C58.86 186.53 61.14 186.77 63.06 187.25C64.98 187.67 66.48 188.45 67.56 189.59C68.64 190.73 69.18 192.38 69.18 194.54C69.18 196.64 68.7 198.26 67.74 199.4C66.72 200.54 65.28 201.32 63.42 201.74C61.56 202.16 59.37 202.37 56.85 202.37L26.34 202.37C24.12 202.37 22.08 202.25 20.22 202.01C18.36 201.71 16.86 201.05 15.72 200.03C14.58 198.95 14.01 197.24 14.01 194.9C14.01 192.68 14.46 191.09 15.36 190.13C16.2 189.11 17.46 188.45 19.14 188.15C20.82 187.79 22.83 187.61 25.17 187.61L29.31 187.61L29.31 174.92L25.53 174.92C25.4565 174.92 25.3832 174.92 25.31 174.92C20.9057 174.942 17.1691 175.601 14.1 176.9C10.92 178.16 8.49004 180.26 6.81004 183.2C5.13004 186.14 4.29003 190.1 4.29003 195.08C4.29003 200.42 5.31003 204.62 7.35004 207.68C9.33004 210.68 12.21 212.78 15.99 213.98C19.77 215.18 24.27 215.78 29.49 215.78L53.97 215.78C59.07 215.78 63.51 215.18 67.29 213.98C71.01 212.72 73.89 210.68 75.93 207.86C77.97 205.04 78.99 201.23 78.99 196.43C78.99 193.07 78.24 190.43 76.74 188.51C76.4469 188.138 76.139 187.784 75.8162 187.448ZM61.17 152.636L61.17 139.946L78 137.066L78 124.736L5.10003 139.316L5.10003 153.536L78 168.116L78 155.606L61.17 152.636ZM34.44 106.065L78 88.2449L78 79.4249L5.10003 79.4249L5.10003 90.4049L46.68 90.4049L5.10003 108.135L5.10003 117.405L78 117.405L78 106.065L34.44 106.065ZM52.71 141.386L22.11 146.336L52.71 151.286L52.71 141.386ZM48.71 146.587L48.71 146.085L47.1588 146.336L48.71 146.587ZM82 72.0019L1.10003 72.0019L1.10003 50.8619L82 50.8619L82 72.0019ZM79.1276 38.8354L79.117 38.8506C76.5059 42.5807 72.9377 45.1906 68.5549 46.6515L68.5456 46.6546L68.5362 46.6577C64.3936 48.0159 59.7595 48.6567 54.69 48.6567L28.68 48.6567C23.394 48.6567 18.6341 48.0217 14.4738 46.6577C10.0219 45.198 6.43558 42.5692 3.9216 38.7601L3.9116 38.745L3.90175 38.7297C1.35065 34.7871 0.290026 29.7292 0.290026 23.9567C0.290026 18.5538 1.20641 13.8022 3.46943 10.1093C5.62115 6.44162 8.7722 3.81589 12.7778 2.30432C16.5015 0.899139 20.6873 0.246734 25.26 0.246734L35.38 0.246733L35.38 21.0267L25.08 21.0267C23.1928 21.0267 21.5254 21.138 20.0657 21.3465L19.9961 21.3565L19.9262 21.364C18.9268 21.4711 18.5371 21.7565 18.3685 21.9252L18.2802 22.0135L18.26 22.0312C18.2461 22.0611 18.2255 22.1108 18.2014 22.1859C18.1098 22.4715 18.01 23.0009 18.01 23.8667C18.01 25.6035 18.4289 26.0487 18.4585 26.0783C18.7492 26.3691 19.3208 26.7417 20.5176 26.9412L20.5286 26.943L20.5397 26.9449C22.0067 27.1978 23.7526 27.3367 25.8 27.3367L57.48 27.3367C59.9276 27.3367 61.7706 27.1399 63.0944 26.8225C64.0248 26.5878 64.5006 26.2626 64.7627 25.9903C64.9424 25.6973 65.18 25.0832 65.18 23.8667C65.18 23.0403 65.0823 22.5401 64.9956 22.2747C64.9728 22.205 64.9534 22.1589 64.9403 22.1312C64.5638 21.8157 63.9487 21.4975 62.8735 21.3492C61.3501 21.1391 59.587 21.0267 57.57 21.0267L47 21.0267L47 0.246733L56.85 0.246732C61.5153 0.246732 65.8025 0.861661 69.6552 2.16882L69.6657 2.17236L69.6761 2.17596C73.795 3.59887 77.1185 6.15341 79.5282 9.76794L79.5337 9.77612L79.5391 9.78436C82.0019 13.5182 82.99 18.3981 82.99 23.9567C82.99 29.7657 81.8555 34.8604 79.1381 38.8201L79.1276 38.8354ZM67.92 28.4567C67.02 29.5367 65.73 30.2867 64.05 30.7067C62.31 31.1267 60.12 31.3367 57.48 31.3367L25.8 31.3367C23.58 31.3367 21.6 31.1867 19.86 30.8867C18.06 30.5867 16.65 29.9267 15.63 28.9067C14.55 27.8268 14.01 26.1467 14.01 23.8667C14.01 21.5867 14.52 19.9967 15.54 19.0967C16.5 18.1367 17.82 17.5667 19.5 17.3867C21.18 17.1467 23.04 17.0267 25.08 17.0267L31.38 17.0267L31.38 4.24673L25.26 4.24673C21.06 4.24673 17.37 4.84674 14.19 6.04675C11.01 7.24673 8.58003 9.28674 6.90003 12.1667C5.16003 14.9868 4.29003 18.9167 4.29003 23.9567C4.29003 29.2968 5.28003 33.4967 7.26003 36.5567C9.24003 39.5567 12.06 41.6567 15.72 42.8567C19.38 44.0567 23.7 44.6567 28.68 44.6567L54.69 44.6567C59.43 44.6567 63.63 44.0567 67.29 42.8567C70.89 41.6567 73.74 39.5567 75.84 36.5567C77.94 33.4967 78.99 29.2967 78.99 23.9567C78.99 18.7967 78.06 14.8067 76.2 11.9867C74.28 9.10675 71.67 7.09674 68.37 5.95672C65.01 4.81674 61.17 4.24673 56.85 4.24673L51 4.24673L51 17.0267L57.57 17.0267C59.73 17.0267 61.68 17.1467 63.42 17.3867C65.16 17.6267 66.57 18.2267 67.65 19.1867C68.67 20.0867 69.18 21.6467 69.18 23.8667C69.18 25.7867 68.76 27.3167 67.92 28.4567ZM67.74 290.85C68.7 291.87 69.18 293.49 69.18 295.71C69.18 297.87 68.7 299.49 67.74 300.57C66.78 301.65 65.46 302.37 63.78 302.73C62.1 303.03 60.27 303.18 58.29 303.18L24.72 303.18C22.68 303.18 20.85 303 19.23 302.64C17.61 302.28 16.35 301.56 15.45 300.48C14.49 299.4 14.01 297.81 14.01 295.71C14.01 293.49 14.49 291.87 15.45 290.85C16.35 289.77 17.61 289.05 19.23 288.69C20.85 288.33 22.68 288.15 24.72 288.15L58.29 288.15C60.27 288.15 62.1 288.33 63.78 288.69C65.46 289.05 66.78 289.77 67.74 290.85ZM78 68.0019L78 54.8619L5.10003 54.8619L5.10003 68.0019L78 68.0019Z" fill="#76A713" fill-opacity="0.2"/>
</svg>
